<svg viewBox="0 0 154.83 169.93" xmlns="http://www.w3.org/2000/svg"><g fill="#2eccb5"><path d="m106.91 12.03 5.59-5.59c1.47-1.47 1.47-3.86 0-5.34-1.47-1.47-3.86-1.47-5.34 0l-6.65 6.65c-6.76-3.74-14.52-5.87-22.77-5.87s-16.02 2.14-22.77 5.87l-6.66-6.66c-1.47-1.47-3.86-1.47-5.34 0-1.47 1.47-1.47 3.86 0 5.34l5.59 5.59c-10.96 8.65-18.02 22.08-18.02 37.1 0 2.09 1.69 3.82 3.78 3.82h86.84c2.09 0 3.78-1.73 3.78-3.82 0-15.02-7.06-28.45-18.02-37.1zm-68.65 33.36c1.91-19.83 18.88-35.87 39.47-35.87s37.57 16.05 39.47 35.87z"/><path d="m121.16 56.72h-86.86c-2.09 0-4.09 1.61-4.09 3.7v61.05c0 10.06 8.49 18.33 18.53 18.33h.35v16.91c0 7.29 5.93 13.22 13.22 13.22s13.22-5.93 13.22-13.22v-16.91h3.78v16.91c0 7.29 5.93 13.22 13.22 13.22s13.22-5.93 13.22-13.22v-16.91h.98c10.04 0 17.9-8.27 17.9-18.33v-61.05c0-2.09-1.37-3.7-3.46-3.7zm-4.09 64.75c0 5.9-4.47 10.78-10.35 10.78h-4.44c-2.09 0-4.09 1.61-4.09 3.7v20.77c0 3.12-2.54 5.66-5.66 5.66s-5.66-2.54-5.66-5.66v-20.77c0-2.09-1.37-3.7-3.46-3.7h-11.33c-2.09 0-4.09 1.61-4.09 3.7v20.77c0 3.12-2.54 5.66-5.66 5.66s-5.66-2.54-5.66-5.66v-20.77c0-2.09-1.37-3.7-3.46-3.7h-4.44c-5.88 0-10.98-4.88-10.98-10.78v-57.2h79.27v57.2z"/><path d="m141.61 56.64c-7.29 0-13.22 5.93-13.22 13.23v49.07c0 7.29 5.93 13.23 13.22 13.23s13.22-5.93 13.22-13.23v-49.07c0-7.29-5.93-13.23-13.22-13.23zm5.66 62.3c0 3.13-2.54 5.68-5.66 5.68s-5.66-2.54-5.66-5.68v-49.07c0-3.13 2.54-5.68 5.66-5.68s5.66 2.55 5.66 5.68z"/><path d="m13.22 56.64c-7.29 0-13.22 5.93-13.22 13.23v49.07c0 7.29 5.93 13.23 13.22 13.23s13.22-5.93 13.22-13.23v-49.07c0-7.29-5.93-13.23-13.22-13.23zm5.66 62.3c0 3.13-2.54 5.68-5.66 5.68s-5.66-2.54-5.66-5.68v-49.07c0-3.13 2.54-5.68 5.66-5.68s5.66 2.55 5.66 5.68z"/><circle cx="60.74" cy="33.99" r="7.55"/><circle cx="94.73" cy="33.99" r="7.55"/></g></svg>