<?xml version="1.0" encoding="UTF-8"?><svg xmlns="http://www.w3.org/2000/svg" viewBox="0 0 154.83 169.93"><defs><style>.d{fill:#2eccb5;}</style></defs><g id="a"/><g id="b"><g id="c"><g><path class="d" d="M106.91,12.03l5.59-5.59c1.47-1.47,1.47-3.86,0-5.34-1.47-1.47-3.86-1.47-5.34,0l-6.65,6.65c-6.76-3.74-14.52-5.87-22.77-5.87s-16.02,2.14-22.77,5.87l-6.66-6.66c-1.47-1.47-3.86-1.47-5.34,0-1.47,1.47-1.47,3.86,0,5.34l5.59,5.59c-10.96,8.65-18.02,22.08-18.02,37.1,0,2.09,1.69,3.82,3.78,3.82H121.16c2.09,0,3.78-1.73,3.78-3.82,0-15.02-7.06-28.45-18.02-37.1ZM38.26,45.39c1.91-19.83,18.88-35.87,39.47-35.87s37.57,16.05,39.47,35.87H38.26Z"/><path class="d" d="M121.16,56.72H34.3c-2.09,0-4.09,1.61-4.09,3.7v61.05c0,10.06,8.49,18.33,18.53,18.33h.35v16.91c0,7.29,5.93,13.22,13.22,13.22s13.22-5.93,13.22-13.22v-16.91h3.78v16.91c0,7.29,5.93,13.22,13.22,13.22s13.22-5.93,13.22-13.22v-16.91h.98c10.04,0,17.9-8.27,17.9-18.33V60.42c0-2.09-1.37-3.7-3.46-3.7Zm-4.09,64.75c0,5.9-4.47,10.78-10.35,10.78h-4.44c-2.09,0-4.09,1.61-4.09,3.7v20.77c0,3.12-2.54,5.66-5.66,5.66s-5.66-2.54-5.66-5.66v-20.77c0-2.09-1.37-3.7-3.46-3.7h-11.33c-2.09,0-4.09,1.61-4.09,3.7v20.77c0,3.12-2.54,5.66-5.66,5.66s-5.66-2.54-5.66-5.66v-20.77c0-2.09-1.37-3.7-3.46-3.7h-4.44c-5.88,0-10.98-4.88-10.98-10.78v-57.2H117.06v57.2h0Z"/><path class="d" d="M141.61,56.64c-7.29,0-13.22,5.93-13.22,13.23v49.07c0,7.29,5.93,13.23,13.22,13.23s13.22-5.93,13.22-13.23v-49.07c0-7.29-5.93-13.23-13.22-13.23Zm5.66,62.3c0,3.13-2.54,5.68-5.66,5.68s-5.66-2.54-5.66-5.68v-49.07c0-3.13,2.54-5.68,5.66-5.68s5.66,2.55,5.66,5.68v49.07Z"/><path class="d" d="M13.22,56.64c-7.29,0-13.22,5.93-13.22,13.23v49.07c0,7.29,5.93,13.23,13.22,13.23s13.22-5.93,13.22-13.23v-49.07c0-7.29-5.93-13.23-13.22-13.23Zm5.66,62.3c0,3.13-2.54,5.68-5.66,5.68s-5.66-2.54-5.66-5.68v-49.07c0-3.13,2.54-5.68,5.66-5.68s5.66,2.55,5.66,5.68v49.07Z"/><circle class="d" cx="60.74" cy="33.99" r="7.55"/><circle class="d" cx="94.73" cy="33.99" r="7.55"/></g></g></g></svg>