<svg viewBox="0 0 249.77 171.71" xmlns="http://www.w3.org/2000/svg"><path d="m248.3 104.64-16.6-72.24c-6.32-19.38-24.14-32.4-44.37-32.4-13.37 0-25.82 5.64-34.73 15.61h-55.43c-8.91-9.97-21.36-15.61-34.73-15.61-20.23 0-38.06 13.02-44.36 32.4l-16.61 72.27c-.98 4.15-1.47 8.34-1.47 12.41 0 30.13 24.51 54.64 54.64 54.64 21.18 0 40.35-12.34 49.32-31.22h41.86c8.97 18.88 28.14 31.22 49.32 31.22 30.13 0 54.64-24.51 54.64-54.64 0-4.07-.5-8.26-1.48-12.44zm-53.17 59.27c-20.38 0-37.68-13.04-44.11-31.22h-52.28c-6.44 18.18-23.73 31.22-44.11 31.22-25.87 0-46.83-20.96-46.83-46.83 0-3.68.47-7.24 1.26-10.66l16.43-71.6c5.1-15.63 19.62-27.01 36.95-27.01 12.72 0 23.92 6.18 31.04 15.61h62.79c7.13-9.43 18.33-15.61 31.05-15.61 17.34 0 31.85 11.38 36.94 27.01l16.42 71.6c.8 3.43 1.27 6.99 1.27 10.66 0 25.87-20.96 46.83-46.83 46.83zm-39.03-117.08c-8.62 0-15.61 6.99-15.61 15.61s6.99 15.61 15.61 15.61 15.61-6.99 15.61-15.61-6.99-15.61-15.61-15.61zm0 23.42c-4.3 0-7.81-3.5-7.81-7.81s3.5-7.81 7.81-7.81 7.81 3.5 7.81 7.81-3.5 7.81-7.81 7.81zm39.03-31.22c-8.62 0-15.61 6.99-15.61 15.61s6.99 15.61 15.61 15.61 15.61-6.99 15.61-15.61-6.99-15.61-15.61-15.61zm0 23.42c-4.3 0-7.81-3.5-7.81-7.81s3.5-7.81 7.81-7.81 7.81 3.5 7.81 7.81-3.5 7.81-7.81 7.81zm-39.03 23.42c-8.62 0-15.61 6.99-15.61 15.61s6.99 15.61 15.61 15.61 15.61-6.99 15.61-15.61-6.99-15.61-15.61-15.61zm0 23.42c-4.3 0-7.81-3.5-7.81-7.81s3.5-7.81 7.81-7.81 7.81 3.5 7.81 7.81-3.5 7.81-7.81 7.81zm39.03-31.22c-8.62 0-15.61 6.99-15.61 15.61s6.99 15.61 15.61 15.61 15.61-6.99 15.61-15.61-6.99-15.61-15.61-15.61zm0 23.42c-4.3 0-7.81-3.5-7.81-7.81s3.5-7.81 7.81-7.81 7.81 3.5 7.81 7.81-3.5 7.81-7.81 7.81zm-109.27-39.05h-7.81v-7.81c0-4.31-3.5-7.81-7.81-7.81h-15.61c-4.31 0-7.81 3.5-7.81 7.81v7.81h-7.81c-4.31 0-7.81 3.5-7.81 7.81v15.61c0 4.31 3.5 7.81 7.81 7.81h7.81v7.81c0 4.31 3.5 7.81 7.81 7.81h15.61c4.31 0 7.81-3.5 7.81-7.81v-7.81h7.81c4.31 0 7.81-3.5 7.81-7.81v-15.61c0-4.31-3.5-7.81-7.81-7.81zm0 23.42h-15.61v15.61h-15.61v-15.61h-15.61v-15.61h15.61v-15.61h15.61v15.61h15.61z" fill="#2eccb5"/></svg>