<?xml version="1.0" encoding="UTF-8"?><svg xmlns="http://www.w3.org/2000/svg" viewBox="0 0 218.26 172.79"><defs><style>.d{fill:#2eccb5;}</style></defs><g id="a"/><g id="b"><g id="c"><g><rect class="d" x="31.83" y="22.73" width="40.92" height="9.09"/><rect class="d" x="81.85" y="22.73" width="22.73" height="9.09"/><rect class="d" x="31.83" y="90.94" width="40.92" height="9.09"/><rect class="d" x="81.85" y="90.94" width="22.73" height="9.09"/><rect class="d" x="31.83" y="68.2" width="27.28" height="9.09"/><rect class="d" x="131.86" y="68.2" width="13.64" height="9.09"/><rect class="d" x="68.2" y="68.2" width="54.56" height="9.09"/><rect class="d" x="90.94" y="45.47" width="18.19" height="9.09"/><rect class="d" x="31.83" y="45.47" width="50.02" height="9.09"/><rect class="d" x="118.22" y="45.47" width="68.2" height="9.09"/><rect class="d" x="31.83" y="113.67" width="68.2" height="9.09"/><polygon class="d" points="173.73 85.45 167.3 91.88 180 104.58 167.3 117.28 173.73 123.71 192.86 104.58 173.73 85.45"/><polygon class="d" points="137.35 91.88 130.92 85.45 111.79 104.58 130.92 123.71 137.35 117.28 124.65 104.58 137.35 91.88"/><rect class="d" x="127.84" y="100.08" width="48.97" height="9.09" transform="translate(-1.36 207.24) rotate(-68.22)"/><path class="d" d="M209.16,136.41V0H9.09V136.41H0v19.56l11.21,16.81H207.05l11.21-16.81v-19.56h-9.09ZM18.19,9.09H200.07v127.32H18.19V9.09ZM209.16,153.22l-6.98,10.47H16.07l-6.98-10.47v-7.72H209.16v7.72Z"/><rect class="d" x="122.77" y="150.05" width="9.09" height="9.09"/><rect class="d" x="104.58" y="150.05" width="9.09" height="9.09"/><rect class="d" x="86.39" y="150.05" width="9.09" height="9.09"/></g></g></g></svg>