<svg viewBox="0 0 218.26 172.79" xmlns="http://www.w3.org/2000/svg"><g fill="#2eccb5"><path d="m31.83 22.73h40.92v9.09h-40.92z"/><path d="m81.85 22.73h22.73v9.09h-22.73z"/><path d="m31.83 90.94h40.92v9.09h-40.92z"/><path d="m81.85 90.94h22.73v9.09h-22.73z"/><path d="m31.83 68.2h27.28v9.09h-27.28z"/><path d="m131.86 68.2h13.64v9.09h-13.64z"/><path d="m68.2 68.2h54.56v9.09h-54.56z"/><path d="m90.94 45.47h18.19v9.09h-18.19z"/><path d="m31.83 45.47h50.02v9.09h-50.02z"/><path d="m118.22 45.47h68.2v9.09h-68.2z"/><path d="m31.83 113.67h68.2v9.09h-68.2z"/><path d="m173.73 85.45-6.43 6.43 12.7 12.7-12.7 12.7 6.43 6.43 19.13-19.13z"/><path d="m137.35 91.88-6.43-6.43-19.13 19.13 19.13 19.13 6.43-6.43-12.7-12.7z"/><path d="m127.84 100.08h48.97v9.09h-48.97z" transform="matrix(.37104371 -.9286154 .9286154 .37104371 -1.36 207.24)"/><path d="m209.16 136.41v-136.41h-200.07v136.41h-9.09v19.56l11.21 16.81h195.84l11.21-16.81v-19.56h-9.09zm-190.97-127.32h181.88v127.32h-181.88zm190.97 144.13-6.98 10.47h-186.11l-6.98-10.47v-7.72h200.07z"/><path d="m122.77 150.05h9.09v9.09h-9.09z"/><path d="m104.58 150.05h9.09v9.09h-9.09z"/><path d="m86.39 150.05h9.09v9.09h-9.09z"/></g></svg>